# xmcd CD database file
#
# Track frame offsets:
#	150
#	19236
#	31646
#	44181
#	59494
#	74731
#	88917
#	106521
#	126809
#	140971
#	155374
#	171583
#	183825
#
# Disc length: 2641 seconds
#
# Revision: 0
# Processed by: cddbd v1.5.2PL0 Copyright (c) Steve Scherf et al.
# Submitted via: CDex 1.51
#
DISCID=bf0a4f0d
DTITLE=Pam and Noel Simonsen - Watermelon Wine
DYEAR=1900
DGENRE=Country
TTITLE0=Old Dogs and Children
TTITLE1=Rockin With the Rythm
TTITLE2=Six Days on the Road
TTITLE3=She's not Crying Anymore
TTITLE4=The Wedding (Ave Maria)
TTITLE5=Come Monday
TTITLE6=True Blue
TTITLE7=Coward of the Country
TTITLE8=Biggest Disappointment in the Family
TTITLE9=I Feel Lucky
TTITLE10=I Just want to Dance with You
TTITLE11=Have you Ever Seen the Rain
TTITLE12=He Drinks Tequila
EXTD=
EXTT0=
EXTT1=
EXTT2=
EXTT3=
EXTT4=
EXTT5=
EXTT6=
EXTT7=
EXTT8=
EXTT9=
EXTT10=
EXTT11=
EXTT12=
PLAYORDER=
